<svg width="30" height="30" viewBox="0 0 30 30" fill="none" xmlns="http://www.w3.org/2000/svg">
<path d="M22.5 17.1426C23.3525 17.1426 24.17 17.4812 24.7728 18.084C25.3756 18.6868 25.7143 19.5044 25.7143 20.3569V21.1229C25.7143 24.9554 21.2036 27.8569 15 27.8569C8.79642 27.8569 4.28571 25.1065 4.28571 21.1229V20.3569C4.28571 19.5044 4.62435 18.6868 5.22715 18.084C5.82994 17.4812 6.64751 17.1426 7.49999 17.1426H22.5ZM15 2.14258C15.8442 2.14258 16.6801 2.30886 17.4601 2.63192C18.24 2.95499 18.9487 3.42851 19.5457 4.02546C20.1426 4.62241 20.6162 5.33109 20.9392 6.11104C21.2623 6.89099 21.4286 7.72694 21.4286 8.57115C21.4286 9.41536 21.2623 10.2513 20.9392 11.0313C20.6162 11.8112 20.1426 12.5199 19.5457 13.1168C18.9487 13.7138 18.24 14.1873 17.4601 14.5104C16.6801 14.8334 15.8442 14.9997 15 14.9997C13.295 14.9997 11.6599 14.3224 10.4543 13.1168C9.24871 11.9112 8.57142 10.2761 8.57142 8.57115C8.57142 6.86619 9.24871 5.23105 10.4543 4.02546C11.6599 2.81987 13.295 2.14258 15 2.14258Z" fill="white"/>
</svg>
