<svg width="119" height="26" viewBox="0 0 119 26" fill="none" xmlns="http://www.w3.org/2000/svg">
<path d="M35.544 8.928V20H34.088V11.744L30.408 20H29.384L25.688 11.728V20H24.232V8.928H25.8L29.896 18.08L33.992 8.928H35.544ZM46.0133 15.28C46.0133 15.5573 45.9973 15.8507 45.9653 16.16H38.9573C39.0106 17.024 39.3039 17.7013 39.8373 18.192C40.3813 18.672 41.0373 18.912 41.8053 18.912C42.4346 18.912 42.9573 18.768 43.3733 18.48C43.7999 18.1813 44.0986 17.7867 44.2693 17.296H45.8373C45.6026 18.1387 45.1333 18.8267 44.4293 19.36C43.7253 19.8827 42.8506 20.144 41.8053 20.144C40.9733 20.144 40.2266 19.9573 39.5653 19.584C38.9146 19.2107 38.4026 18.6827 38.0293 18C37.6559 17.3067 37.4693 16.5067 37.4693 15.6C37.4693 14.6933 37.6506 13.8987 38.0133 13.216C38.3759 12.5333 38.8826 12.0107 39.5333 11.648C40.1946 11.2747 40.9519 11.088 41.8053 11.088C42.6373 11.088 43.3733 11.2693 44.0133 11.632C44.6533 11.9947 45.1439 12.496 45.4853 13.136C45.8373 13.7653 46.0133 14.48 46.0133 15.28ZM44.5093 14.976C44.5093 14.4213 44.3866 13.9467 44.1413 13.552C43.8959 13.1467 43.5599 12.8427 43.1333 12.64C42.7173 12.4267 42.2533 12.32 41.7413 12.32C41.0053 12.32 40.3759 12.5547 39.8533 13.024C39.3413 13.4933 39.0479 14.144 38.9733 14.976H44.5093ZM55.9351 15.28C55.9351 15.5573 55.9191 15.8507 55.8871 16.16H48.8791C48.9325 17.024 49.2258 17.7013 49.7591 18.192C50.3031 18.672 50.9591 18.912 51.7271 18.912C52.3565 18.912 52.8791 18.768 53.2951 18.48C53.7218 18.1813 54.0205 17.7867 54.1911 17.296H55.7591C55.5245 18.1387 55.0551 18.8267 54.3511 19.36C53.6471 19.8827 52.7725 20.144 51.7271 20.144C50.8951 20.144 50.1485 19.9573 49.4871 19.584C48.8365 19.2107 48.3245 18.6827 47.9511 18C47.5778 17.3067 47.3911 16.5067 47.3911 15.6C47.3911 14.6933 47.5725 13.8987 47.9351 13.216C48.2978 12.5333 48.8045 12.0107 49.4551 11.648C50.1165 11.2747 50.8738 11.088 51.7271 11.088C52.5591 11.088 53.2951 11.2693 53.9351 11.632C54.5751 11.9947 55.0658 12.496 55.4071 13.136C55.7591 13.7653 55.9351 14.48 55.9351 15.28ZM54.4311 14.976C54.4311 14.4213 54.3085 13.9467 54.0631 13.552C53.8178 13.1467 53.4818 12.8427 53.0551 12.64C52.6391 12.4267 52.1751 12.32 51.6631 12.32C50.9271 12.32 50.2978 12.5547 49.7751 13.024C49.2631 13.4933 48.9698 14.144 48.8951 14.976H54.4311ZM59.633 12.432V17.6C59.633 18.0267 59.7237 18.3307 59.905 18.512C60.0863 18.6827 60.401 18.768 60.849 18.768H61.921V20H60.609C59.7983 20 59.1903 19.8133 58.785 19.44C58.3797 19.0667 58.177 18.4533 58.177 17.6V12.432H57.041V11.232H58.177V9.024H59.633V11.232H61.921V12.432H59.633ZM74.9971 8.928V20H73.5411V11.744L69.8611 20H68.8371L65.1411 11.728V20H63.6851V8.928H65.2531L69.3491 18.08L73.4451 8.928H74.9971ZM85.4664 15.28C85.4664 15.5573 85.4504 15.8507 85.4184 16.16H78.4104C78.4637 17.024 78.757 17.7013 79.2904 18.192C79.8344 18.672 80.4904 18.912 81.2584 18.912C81.8877 18.912 82.4104 18.768 82.8264 18.48C83.253 18.1813 83.5517 17.7867 83.7224 17.296H85.2904C85.0557 18.1387 84.5864 18.8267 83.8824 19.36C83.1784 19.8827 82.3037 20.144 81.2584 20.144C80.4264 20.144 79.6797 19.9573 79.0184 19.584C78.3677 19.2107 77.8557 18.6827 77.4824 18C77.109 17.3067 76.9224 16.5067 76.9224 15.6C76.9224 14.6933 77.1037 13.8987 77.4664 13.216C77.829 12.5333 78.3357 12.0107 78.9864 11.648C79.6477 11.2747 80.405 11.088 81.2584 11.088C82.0904 11.088 82.8264 11.2693 83.4664 11.632C84.1064 11.9947 84.597 12.496 84.9384 13.136C85.2904 13.7653 85.4664 14.48 85.4664 15.28ZM83.9624 14.976C83.9624 14.4213 83.8397 13.9467 83.5944 13.552C83.349 13.1467 83.013 12.8427 82.5864 12.64C82.1704 12.4267 81.7064 12.32 81.1944 12.32C80.4584 12.32 79.829 12.5547 79.3064 13.024C78.7944 13.4933 78.501 14.144 78.4264 14.976H83.9624ZM93.9803 17.52H89.1163L88.2203 20H86.6842L90.7163 8.912H92.3963L96.4123 20H94.8763L93.9803 17.52ZM93.5643 16.336L91.5483 10.704L89.5323 16.336H93.5643ZM99.6255 12.848C99.9135 12.3467 100.34 11.9307 100.906 11.6C101.482 11.2587 102.148 11.088 102.906 11.088C103.684 11.088 104.388 11.2747 105.017 11.648C105.657 12.0213 106.159 12.5493 106.522 13.232C106.884 13.904 107.066 14.688 107.066 15.584C107.066 16.4693 106.884 17.2587 106.522 17.952C106.159 18.6453 105.657 19.184 105.017 19.568C104.388 19.952 103.684 20.144 102.906 20.144C102.159 20.144 101.498 19.9787 100.922 19.648C100.356 19.3067 99.9242 18.8853 99.6255 18.384V24.16H98.1695V11.232H99.6255V12.848ZM105.578 15.584C105.578 14.9227 105.444 14.3467 105.178 13.856C104.911 13.3653 104.548 12.992 104.09 12.736C103.642 12.48 103.146 12.352 102.602 12.352C102.068 12.352 101.572 12.4853 101.114 12.752C100.666 13.008 100.303 13.3867 100.026 13.888C99.7588 14.3787 99.6255 14.9493 99.6255 15.6C99.6255 16.2613 99.7588 16.8427 100.026 17.344C100.303 17.8347 100.666 18.2133 101.114 18.48C101.572 18.736 102.068 18.864 102.602 18.864C103.146 18.864 103.642 18.736 104.09 18.48C104.548 18.2133 104.911 17.8347 105.178 17.344C105.444 16.8427 105.578 16.256 105.578 15.584ZM110.438 12.848C110.726 12.3467 111.153 11.9307 111.718 11.6C112.294 11.2587 112.961 11.088 113.718 11.088C114.497 11.088 115.201 11.2747 115.83 11.648C116.47 12.0213 116.971 12.5493 117.334 13.232C117.697 13.904 117.878 14.688 117.878 15.584C117.878 16.4693 117.697 17.2587 117.334 17.952C116.971 18.6453 116.47 19.184 115.83 19.568C115.201 19.952 114.497 20.144 113.718 20.144C112.971 20.144 112.31 19.9787 111.734 19.648C111.169 19.3067 110.737 18.8853 110.438 18.384V24.16H108.982V11.232H110.438V12.848ZM116.39 15.584C116.39 14.9227 116.257 14.3467 115.99 13.856C115.723 13.3653 115.361 12.992 114.902 12.736C114.454 12.48 113.958 12.352 113.414 12.352C112.881 12.352 112.385 12.4853 111.926 12.752C111.478 13.008 111.115 13.3867 110.838 13.888C110.571 14.3787 110.438 14.9493 110.438 15.6C110.438 16.2613 110.571 16.8427 110.838 17.344C111.115 17.8347 111.478 18.2133 111.926 18.48C112.385 18.736 112.881 18.864 113.414 18.864C113.958 18.864 114.454 18.736 114.902 18.48C115.361 18.2133 115.723 17.8347 115.99 17.344C116.257 16.8427 116.39 16.256 116.39 15.584Z" fill="#333333"/>
<path d="M7.42861 12C7.42861 11.3938 7.66942 10.8124 8.09808 10.3838C8.52673 9.9551 9.10811 9.71429 9.71432 9.71429H16.5715C17.1777 9.71429 17.7591 9.9551 18.1877 10.3838C18.6164 10.8124 18.8572 11.3938 18.8572 12V14.8571C18.8572 16.2211 18.3153 17.5292 17.3509 18.4937C16.3864 19.4582 15.0783 20 13.7143 20H12.5715C11.2075 20 9.89939 19.4582 8.93492 18.4937C7.97044 17.5292 7.42861 16.2211 7.42861 14.8571V12ZM7.42861 12H6.28575C5.67954 12 5.09816 12.2408 4.66951 12.6695C4.24085 13.0981 4.00004 13.6795 4.00004 14.2857C4.00004 14.8919 4.24085 15.4733 4.66951 15.902C5.09816 16.3306 5.67954 16.5714 6.28575 16.5714H7.42861M14.2857 7.42857V2.85714M12 7.42857V5.14286" stroke="#333333" stroke-linecap="round" stroke-linejoin="round"/>
</svg>
