<svg width="30" height="30" viewBox="0 0 30 30" fill="none" xmlns="http://www.w3.org/2000/svg">
<path d="M27.0791 9.91409C26.4218 8.34531 25.4656 6.91941 24.2637 5.71585C23.0654 4.51019 21.642 3.55162 20.0742 2.89456C18.4682 2.21819 16.7426 1.87148 15 1.87503H14.9414C13.169 1.88382 11.4551 2.23538 9.84084 2.92678C8.28655 3.59058 6.87649 4.55085 5.68947 5.75393C4.49923 6.95479 3.55394 8.37571 2.90627 9.93753C2.23395 11.5616 1.89328 13.3038 1.90431 15.0615C1.9131 17.0948 2.39943 19.1133 3.30763 20.918V25.3711C3.30763 26.1153 3.91115 26.7188 4.65236 26.7188H9.09963C10.9127 27.6337 12.9135 28.1151 14.9444 28.125H15.0059C16.7578 28.125 18.4541 27.7852 20.0537 27.1201C21.6135 26.4709 23.0316 25.5235 24.2285 24.3311C25.4356 23.1328 26.3848 21.7324 27.0498 20.1709C27.7383 18.5537 28.0899 16.834 28.0986 15.0586C28.1045 13.2744 27.7588 11.543 27.0791 9.91409ZM9.15236 16.4063C8.37892 16.4063 7.74904 15.7764 7.74904 15C7.74904 14.2237 8.37892 13.5938 9.15236 13.5938C9.9258 13.5938 10.5557 14.2237 10.5557 15C10.5557 15.7764 9.92873 16.4063 9.15236 16.4063ZM15 16.4063C14.2266 16.4063 13.5967 15.7764 13.5967 15C13.5967 14.2237 14.2266 13.5938 15 13.5938C15.7735 13.5938 16.4033 14.2237 16.4033 15C16.4033 15.7764 15.7735 16.4063 15 16.4063ZM20.8477 16.4063C20.0742 16.4063 19.4444 15.7764 19.4444 15C19.4444 14.2237 20.0742 13.5938 20.8477 13.5938C21.6211 13.5938 22.251 14.2237 22.251 15C22.251 15.7764 21.6211 16.4063 20.8477 16.4063Z" fill="white"/>
</svg>
